<?xml version="1.0" standalone="no"?>
<!DOCTYPE svg PUBLIC "-//W3C//DTD SVG 20010904//EN"
 "http://www.w3.org/TR/2001/REC-SVG-20010904/DTD/svg10.dtd">
<svg version="1.0" xmlns="http://www.w3.org/2000/svg"
 width="512.000000pt" height="512.000000pt" viewBox="0 0 512.000000 512.000000"
 preserveAspectRatio="xMidYMid meet">
<metadata>
Created by potrace 1.11, written by Peter Selinger 2001-2013
</metadata>
<g transform="translate(0.000000,512.000000) scale(0.100000,-0.100000)"
fill="#000000" stroke="none">
<path d="M570 5105 c-290 -59 -514 -293 -559 -585 -9 -56 -11 -574 -9 -2005 3
-1822 4 -1933 21 -1990 74 -248 263 -435 508 -502 60 -17 182 -18 2029 -18
1857 0 1969 1 2030 18 246 68 439 261 507 508 17 60 18 182 18 2029 0 1847 -1
1969 -18 2029 -67 245 -254 434 -502 508 -57 17 -167 18 -2010 20 -1578 1
-1962 -1 -2015 -12z m2600 -1270 c188 -31 385 -97 570 -190 54 -27 70 -40 66
-53 -3 -9 -35 -176 -72 -369 l-68 -353 -359 0 -359 0 6 48 c11 81 26 323 26
413 0 160 -43 237 -138 247 -156 15 -290 -126 -412 -433 -155 -390 -265 -1189
-196 -1420 17 -56 57 -110 96 -130 42 -22 125 -19 176 6 24 11 69 48 102 83
88 95 155 244 216 486 l24 95 366 3 c201 1 366 -1 366 -5 0 -5 -35 -173 -77
-375 l-78 -367 -100 -47 c-265 -123 -464 -175 -753 -194 -372 -25 -694 44
-908 195 -158 113 -252 264 -306 495 -25 110 -36 416 -19 557 41 346 178 657
386 881 227 244 552 400 920 442 112 12 411 4 525 -15z"/>
</g>
</svg>
